<svg width="28" height="27" viewBox="0 0 28 27" fill="none" xmlns="http://www.w3.org/2000/svg">
<path d="M20.2259 0.167236C24.7606 0.167236 27.3206 2.73924 27.3339 7.2739V19.7272C27.3339 24.2606 24.7606 26.8339 20.2259 26.8339H7.7739C3.23924 26.8339 0.667236 24.2606 0.667236 19.7272V7.2739C0.667236 2.73924 3.23924 0.167236 7.7739 0.167236H20.2259ZM14.6672 5.6739C14.2926 5.44724 13.8392 5.44724 13.4806 5.6739C13.1192 5.89924 12.9206 6.3139 12.9592 6.72724V20.3139C13.0272 20.8872 13.5059 21.3139 14.0659 21.3139C14.6406 21.3139 15.1192 20.8872 15.1726 20.3139V6.72724C15.2259 6.3139 15.0272 5.89924 14.6672 5.6739ZM8.44057 10.0472C8.08057 9.82057 7.6259 9.82057 7.26724 10.0472C6.9059 10.2739 6.70724 10.6859 6.74724 11.1006V20.3139C6.79924 20.8872 7.27924 21.3139 7.85257 21.3139C8.42724 21.3139 8.9059 20.8872 8.95924 20.3139V11.1006C9.00057 10.6859 8.79924 10.2739 8.44057 10.0472ZM20.7859 14.8872C20.4272 14.6606 19.9739 14.6606 19.6006 14.8872C19.2392 15.1139 19.0406 15.5126 19.0939 15.9406V20.3139C19.1472 20.8872 19.6259 21.3139 20.2006 21.3139C20.7606 21.3139 21.2392 20.8872 21.3072 20.3139V15.9406C21.3459 15.5126 21.1472 15.1139 20.7859 14.8872Z" fill="#093D5E"/>
</svg>
